<svg id="Layer_1" data-name="Layer 1" xmlns="http://www.w3.org/2000/svg" viewBox="0 0 384.8 140.34"><defs><style>.cls-1{fill:#ffffff;}.cls-2{fill:#ffffff;}.cls-3{fill:#ffffff;}.cls-4{fill:#ffffff;}.cls-5{opacity:0.8;}</style></defs><title>Untitled-1</title><path class="cls-1" d="M227.89,58.08,185.5,16A6.89,6.89,0,0,0,176,16l-25.8,22.26A5.92,5.92,0,0,0,148,44a7.38,7.38,0,0,0,4.84,5.38A6.75,6.75,0,0,0,159.63,48L180.36,30.1l37.93,37.61a6.38,6.38,0,0,0,6.28,1.76,7.51,7.51,0,0,0,5.13-5.17A6.32,6.32,0,0,0,227.89,58.08Z"/><path class="cls-2" d="M178.82,58.08,136.43,16A6.89,6.89,0,0,0,126.9,16L101.1,38.23A5.92,5.92,0,0,0,98.94,44a7.38,7.38,0,0,0,4.84,5.38A6.75,6.75,0,0,0,110.56,48L131.29,30.1l37.93,37.61a6.38,6.38,0,0,0,6.28,1.76,7.51,7.51,0,0,0,5.13-5.17A6.32,6.32,0,0,0,178.82,58.08Z"/><path class="cls-3" d="M127.46,57.22,71,2.12a7.4,7.4,0,0,0-10.37,0L2.05,63.57C-2.32,68.16.72,76.08,7.23,76.08H23.35v52.35a7.39,7.39,0,0,0,7.33,7.33H65.85c9.45,0,9.45-14.66,0-14.66H38V68.76a7.4,7.4,0,0,0-7.33-7.33H24.34L66,17.72,117.1,67.58C123.86,74.18,134.23,63.83,127.46,57.22Z"/><path class="cls-4" d="M92.24,83.53H76.45a2.59,2.59,0,0,0-2.79,2.79A2.56,2.56,0,0,0,76.45,89h5.07v16.65a2.68,2.68,0,0,0,2.9,2.88,2.64,2.64,0,0,0,2.82-2.88V89h5A2.56,2.56,0,0,0,95,86.32,2.59,2.59,0,0,0,92.24,83.53Z"/><path class="cls-4" d="M114.77,83.27a2.66,2.66,0,0,0-2.85,2.88v6.71h-9.5V86.15a2.86,2.86,0,1,0-5.72,0v19.54a2.86,2.86,0,1,0,5.72,0V98.38h9.5v7.31a2.85,2.85,0,1,0,5.7,0V86.15A2.66,2.66,0,0,0,114.77,83.27Z"/><path class="cls-4" d="M124.53,83.27a2.67,2.67,0,0,0-2.88,2.88v19.54a2.86,2.86,0,1,0,5.72,0V86.15A2.66,2.66,0,0,0,124.53,83.27Z"/><path class="cls-4" d="M142.8,88.55a6.19,6.19,0,0,1,4.85,2.08A3.06,3.06,0,0,0,150,91.85a2.48,2.48,0,0,0,2.69-2.66,3,3,0,0,0-.72-1.91c-2.18-2.76-5.34-4.16-9.4-4.16A12,12,0,0,0,133.41,87a13.61,13.61,0,0,0,0,17.94,12,12,0,0,0,9.19,3.83c4.06,0,7.23-1.4,9.39-4.15a3,3,0,0,0,.73-1.92A2.47,2.47,0,0,0,150,100a3,3,0,0,0-2.33,1.18,6.26,6.26,0,0,1-4.89,2.11,6.58,6.58,0,0,1-5.24-2.12,8.63,8.63,0,0,1,0-10.5A6.58,6.58,0,0,1,142.8,88.55Z"/><path class="cls-4" d="M166.65,83.12a12,12,0,0,0-9.11,3.81,13.45,13.45,0,0,0,0,18,12.78,12.78,0,0,0,18.21,0h0a13.44,13.44,0,0,0,0-18A12,12,0,0,0,166.65,83.12Zm5,18a7,7,0,0,1-10.1,0,8.51,8.51,0,0,1,0-10.42,7,7,0,0,1,10.1,0h0a8.41,8.41,0,0,1,0,10.41Z"/><path class="cls-4" d="M200.24,83.27a2.59,2.59,0,0,0-2.8,2.79V97.8L186.93,84.43a2.66,2.66,0,0,0-2.22-1.16,2.6,2.6,0,0,0-2.82,2.79v19.76a2.77,2.77,0,0,0,5.54,0V94.05L198,107.56a2.7,2.7,0,0,0,2.15,1,2.58,2.58,0,0,0,2.81-2.75V86.06A2.58,2.58,0,0,0,200.24,83.27Z"/><path class="cls-4" d="M225.81,94.41H219a2.71,2.71,0,1,0,0,5.41H223v2.27a8.26,8.26,0,0,1-4.94,1.35,6.28,6.28,0,0,1-5.08-2.17,7.91,7.91,0,0,1-1.76-5.35,7.4,7.4,0,0,1,1.87-5.22,6.27,6.27,0,0,1,4.9-2.09,7.86,7.86,0,0,1,4.8,1.78,3.06,3.06,0,0,0,1.8.62,2.52,2.52,0,0,0,2.72-2.72,2.62,2.62,0,0,0-.85-1.92,9.89,9.89,0,0,0-3.88-2.5,13.47,13.47,0,0,0-4.59-.75,12.06,12.06,0,0,0-9,3.63A13.65,13.65,0,0,0,209,105a12.19,12.19,0,0,0,9.12,3.68c4.18,0,7.51-1.34,9.83-3.91a2.59,2.59,0,0,0,.76-2V97.29A2.67,2.67,0,0,0,225.81,94.41Z"/><path class="cls-4" d="M248,83.53H232.21a2.59,2.59,0,0,0-2.79,2.79A2.56,2.56,0,0,0,232.21,89h5.07v16.65a2.68,2.68,0,0,0,2.9,2.88,2.64,2.64,0,0,0,2.82-2.88V89h5a2.56,2.56,0,0,0,2.79-2.72A2.59,2.59,0,0,0,248,83.53Z"/><path class="cls-4" d="M263.84,83.12a12,12,0,0,0-9.11,3.81,13.44,13.44,0,0,0,0,18,12.78,12.78,0,0,0,18.21,0h0a13.45,13.45,0,0,0,0-18A12,12,0,0,0,263.84,83.12Zm5.05,18a7,7,0,0,1-10.1,0,8.48,8.48,0,0,1,0-10.42,7,7,0,0,1,10.1,0h0a8.43,8.43,0,0,1,0,10.41Z"/><path class="cls-4" d="M295.48,83.53H279.69a2.59,2.59,0,0,0-2.79,2.79A2.56,2.56,0,0,0,279.69,89h5.07v16.65a2.68,2.68,0,0,0,2.9,2.88,2.64,2.64,0,0,0,2.82-2.88V89h5a2.56,2.56,0,0,0,2.79-2.72A2.59,2.59,0,0,0,295.48,83.53Z"/><path class="cls-4" d="M302.53,102.07a3.25,3.25,0,1,0,3.26,3.26A3,3,0,0,0,302.53,102.07Z"/><path class="cls-4" d="M320.39,88.55a6.19,6.19,0,0,1,4.85,2.08,3.06,3.06,0,0,0,2.37,1.22,2.48,2.48,0,0,0,2.69-2.66,3,3,0,0,0-.72-1.91c-2.18-2.76-5.34-4.16-9.4-4.16A12,12,0,0,0,311,87a13.61,13.61,0,0,0,0,17.94,12,12,0,0,0,9.19,3.83c4.06,0,7.23-1.4,9.39-4.15a3,3,0,0,0,.73-1.92,2.47,2.47,0,0,0-2.69-2.65,3,3,0,0,0-2.33,1.18,6.26,6.26,0,0,1-4.89,2.11,6.58,6.58,0,0,1-5.24-2.12,8.63,8.63,0,0,1,0-10.5A6.58,6.58,0,0,1,320.39,88.55Z"/><path class="cls-4" d="M344.24,83.12a12,12,0,0,0-9.11,3.81,13.45,13.45,0,0,0,0,18,12.78,12.78,0,0,0,18.21,0h0a13.44,13.44,0,0,0,0-18A12,12,0,0,0,344.24,83.12Zm5.05,18a7,7,0,0,1-10.1,0,8.51,8.51,0,0,1,0-10.42,7,7,0,0,1,10.1,0h0a8.41,8.41,0,0,1,0,10.41Z"/><path class="cls-4" d="M382.05,83.27a2.75,2.75,0,0,0-2.56,1.66L372.13,100l-7.34-15.07a2.76,2.76,0,0,0-2.56-1.66A2.56,2.56,0,0,0,359.48,86v19.77a2.77,2.77,0,1,0,5.54,0V97.62l4.58,9.31a2.77,2.77,0,0,0,5.06,0l4.58-9.32v8.17a2.6,2.6,0,0,0,2.81,2.78,2.57,2.57,0,0,0,2.75-2.78V86A2.56,2.56,0,0,0,382.05,83.27Z"/><g class="cls-5"><path class="cls-4" d="M89.39,122.62h-4.3v12.3c0,.75-.35,1.12-1.07,1.12a1,1,0,0,1-1.14-1.12v-12.3H78.54c-.7,0-1.06-.34-1.06-1a.94.94,0,0,1,1.06-1.06H89.39a.93.93,0,0,1,1.06,1.06C90.45,122.28,90.1,122.62,89.39,122.62Z"/><path class="cls-4" d="M102.26,129.37v5.57a1.08,1.08,0,1,1-2.16,0v-.73a3.43,3.43,0,0,1-3.31,1.93,3.83,3.83,0,0,1-3.07-1.32,5,5,0,0,1-1.09-3.35v-4.69a1.08,1.08,0,0,1,2.16,0v4.6c0,1.87.87,2.8,2.6,2.8a2.61,2.61,0,0,0,2-.82,2.87,2.87,0,0,0,.7-2v-4.58a1.08,1.08,0,0,1,2.16,0v.75a4.32,4.32,0,0,0,.14-1.11v-.85c0-.49.34-.73,1-.73s1,.24,1,.73v.65a4.35,4.35,0,0,1-.21,1.33,4.72,4.72,0,0,1-.67,1.37,1.14,1.14,0,0,1-.94.48A1.86,1.86,0,0,1,102.26,129.37Zm-4.6,8.08a1.2,1.2,0,1,1-1.21,1.2A1.06,1.06,0,0,1,97.66,137.45Z"/><path class="cls-4" d="M113.37,127.05a4.47,4.47,0,0,1,3.39-1.43,3.94,3.94,0,0,1,3.54,2v-6.14a1.08,1.08,0,1,1,2.16,0V135c0,.72-.34,1.08-1,1.08s-1.06-.36-1.06-1.1v-.78a3.86,3.86,0,0,1-3.61,2,4.42,4.42,0,0,1-3.39-1.49,5.83,5.83,0,0,1,0-7.6Zm1.59,6.33a3,3,0,0,0,4.48-.08,3.62,3.62,0,0,0,.86-2.42,3.58,3.58,0,0,0-.86-2.42,2.79,2.79,0,0,0-2.24-1.06,2.82,2.82,0,0,0-2.24,1,4.16,4.16,0,0,0,0,5Z"/><path class="cls-4" d="M134.35,134.59a5.51,5.51,0,0,1-7.66,0,5.25,5.25,0,0,1,3.83-9,5.09,5.09,0,0,1,3.83,1.53,5.52,5.52,0,0,1,0,7.44Zm-1.52-6.12a3.11,3.11,0,0,0-4.62,0,4.06,4.06,0,0,0,0,4.81,3.13,3.13,0,0,0,4.62,0,4.06,4.06,0,0,0,0-4.81Z"/><path class="cls-4" d="M147.64,135a1.09,1.09,0,0,1-2.17,0V121.45a1.09,1.09,0,0,1,2.17,0v8.25l4.83-3.77a1,1,0,0,1,.66-.22c.66,0,1,.31,1,.94a1.06,1.06,0,0,1-.51.82l-3.1,2.42,3.54,4.55a1,1,0,0,1,.22.61c0,.66-.34,1-1,1a.88.88,0,0,1-.73-.4L149,131.08l-1.32,1.08Z"/><path class="cls-4" d="M164.9,127.15a5.51,5.51,0,0,1,1.31,3.75c0,.49-.28.73-.83.73h-6.87q.19,2.79,3.09,2.79a3.86,3.86,0,0,0,2.68-1.13,1,1,0,0,1,.7-.35.8.8,0,0,1,.9.9.94.94,0,0,1-.28.62,5.12,5.12,0,0,1-4.09,1.68,5,5,0,0,1-3.9-1.56,5.68,5.68,0,0,1,.12-7.47,4.94,4.94,0,0,1,3.69-1.49A4.4,4.4,0,0,1,164.9,127.15Zm-.65-4.12a.82.82,0,0,1,.25.58c0,.47-.25.71-.75.71a.76.76,0,0,1-.51-.18l-1.77-1.61-1.77,1.61a.79.79,0,0,1-.51.18c-.5,0-.75-.24-.75-.71a.82.82,0,0,1,.25-.58l2.23-2a.82.82,0,0,1,.55-.23.84.84,0,0,1,.55.23Zm0,6.86a3,3,0,0,0-.88-1.79,2.85,2.85,0,0,0-4.78,1.79ZM163,120.43a1.64,1.64,0,0,1,.16-.26l1.29-1.77a.86.86,0,0,1,.74-.4.78.78,0,0,1,.89.86.88.88,0,0,1-.07.33.76.76,0,0,1-.16.26l-1.27,1.73a.89.89,0,0,1-.77.42.77.77,0,0,1-.88-.86A1,1,0,0,1,163,120.43Z"/><path class="cls-4" d="M172.4,135a1.08,1.08,0,1,1-2.15,0v-7.28H168.5a.9.9,0,0,1,0-1.8h1.75v-3a1.08,1.08,0,1,1,2.15,0v3h2a.9.9,0,0,1,0,1.8h-2Z"/><path class="cls-4" d="M193.52,135a1.08,1.08,0,1,1-2.16,0v-4.59c0-1.87-.87-2.8-2.6-2.8a2.54,2.54,0,0,0-2,.82,2.89,2.89,0,0,0-.71,2V135A1,1,0,0,1,185,136a1,1,0,0,1-1.07-1.08V126.8a1,1,0,0,1,1.07-1.09,1,1,0,0,1,1.09,1.09v.75a3.44,3.44,0,0,1,3.3-1.93,3.83,3.83,0,0,1,3.08,1.31,5,5,0,0,1,1.09,3.34Z"/><path class="cls-4" d="M205.3,134.59a5.49,5.49,0,0,1-7.65,0,5.25,5.25,0,0,1,3.83-9,5.07,5.07,0,0,1,3.82,1.53,5.52,5.52,0,0,1,0,7.44Zm-1.51-6.12a3.12,3.12,0,0,0-4.63,0,4.1,4.1,0,0,0,0,4.81,3.14,3.14,0,0,0,4.63,0,4.1,4.1,0,0,0,0-4.81Zm.47-5.44a.87.87,0,0,1,.25.58c0,.47-.25.71-.75.71a.76.76,0,0,1-.51-.18l-1.77-1.61-1.78,1.61a.75.75,0,0,1-.5.18c-.5,0-.75-.24-.75-.71a.85.85,0,0,1,.24-.58l2.24-2a.82.82,0,0,1,.55-.23.86.86,0,0,1,.55.23Zm-1.34-2.41a.87.87,0,0,1,.16-.26l1.29-1.77a.86.86,0,0,1,.73-.39c.6,0,.9.28.9.85a.72.72,0,0,1-.07.33.93.93,0,0,1-.15.26l-1.27,1.73a1,1,0,0,1-.79.42.84.84,0,0,1-.8-1.17Z"/><path class="cls-4" d="M210.62,121.61a1.27,1.27,0,1,1-1.26,1.27A1.12,1.12,0,0,1,210.62,121.61ZM211.7,135a1.08,1.08,0,1,1-2.16,0v-8.18a1.08,1.08,0,0,1,2.16,0Z"/><path class="cls-4" d="M231.66,135a1.08,1.08,0,1,1-2.15,0v-4.59c0-1.87-.87-2.8-2.61-2.8a2.56,2.56,0,0,0-2,.82,2.88,2.88,0,0,0-.7,2V135a1.09,1.09,0,0,1-2.17,0V126.8a1.09,1.09,0,1,1,2.17,0v.75a3.42,3.42,0,0,1,3.3-1.93,3.81,3.81,0,0,1,3.07,1.31,4.92,4.92,0,0,1,1.09,3.34Z"/><path class="cls-4" d="M244.63,135a1.08,1.08,0,1,1-2.16,0v-4.59c0-1.87-.87-2.8-2.6-2.8a2.54,2.54,0,0,0-2,.82,2.89,2.89,0,0,0-.71,2V135a1.09,1.09,0,0,1-2.17,0V121.47a1.09,1.09,0,1,1,2.17,0v6.08a3.44,3.44,0,0,1,3.3-1.93,3.83,3.83,0,0,1,3.08,1.31,5,5,0,0,1,1.09,3.34Z"/><path class="cls-4" d="M257.48,129.37v5.57a1.08,1.08,0,1,1-2.16,0v-.73a3.43,3.43,0,0,1-3.31,1.93,3.83,3.83,0,0,1-3.07-1.32,5,5,0,0,1-1.09-3.35v-4.69a1.08,1.08,0,0,1,2.16,0v4.6c0,1.87.87,2.8,2.6,2.8a2.61,2.61,0,0,0,2-.82,2.87,2.87,0,0,0,.7-2v-4.58a1.08,1.08,0,0,1,2.16,0v.75a4.32,4.32,0,0,0,.14-1.11v-.85c0-.49.34-.73,1-.73s1,.24,1,.73v.65a4.35,4.35,0,0,1-.21,1.33,4.72,4.72,0,0,1-.67,1.37,1.14,1.14,0,0,1-.94.48A1.86,1.86,0,0,1,257.48,129.37Zm-2.08-5.65a2,2,0,0,1-1.24.47,2.5,2.5,0,0,1-.85-.15l-1.32-.56a1.66,1.66,0,0,0-.55-.12.94.94,0,0,0-.74.35l-.31.31a.54.54,0,0,1-.38.15c-.52,0-.78-.23-.78-.68a1.76,1.76,0,0,1,.48-1,1.82,1.82,0,0,1,1.47-.75,4.49,4.49,0,0,1,1.62.4l.18.08.16.08.33.13a1.89,1.89,0,0,0,.56.13,1,1,0,0,0,.72-.34c.21-.23.38-.35.53-.35a.64.64,0,0,1,.73.71A1.44,1.44,0,0,1,255.4,123.72Z"/><path class="cls-4" d="M270.55,135a1.08,1.08,0,1,1-2.15,0v-4.59c0-1.87-.87-2.8-2.6-2.8a2.54,2.54,0,0,0-2,.82,2.89,2.89,0,0,0-.71,2V135a1.09,1.09,0,0,1-2.17,0V126.8a1.09,1.09,0,1,1,2.17,0v.75a3.44,3.44,0,0,1,3.3-1.93,3.83,3.83,0,0,1,3.08,1.31,5,5,0,0,1,1.08,3.34Z"/><path class="cls-4" d="M283.76,135.16a5.27,5.27,0,0,1-1.25,3.78,5.53,5.53,0,0,1-4.13,1.4,9.13,9.13,0,0,1-2-.21,7.81,7.81,0,0,1-2-.8,1,1,0,0,1-.57-.85.85.85,0,0,1,.46-.79,1,1,0,0,1,1.08.08,5.53,5.53,0,0,0,2.89.83,2.84,2.84,0,0,0,3.36-3.29v-1.47a3.72,3.72,0,0,1-3.49,1.93,4.56,4.56,0,0,1-3.56-1.5,5.63,5.63,0,0,1,0-7.17,4.57,4.57,0,0,1,3.56-1.48,3.8,3.8,0,0,1,3.57,1.93v-.75c0-.73.34-1.09,1-1.09a.94.94,0,0,1,1.06,1.07Zm-3-6.78a2.88,2.88,0,0,0-2.24-1,2.9,2.9,0,0,0-2.24.93,3.63,3.63,0,0,0,0,4.67,2.91,2.91,0,0,0,2.24.94,2.88,2.88,0,0,0,2.24-1,3.32,3.32,0,0,0,.84-2.31A3.28,3.28,0,0,0,280.75,128.38Z"/><path class="cls-4" d="M303.71,135a1.08,1.08,0,1,1-2.15,0v-4.59c0-1.87-.87-2.8-2.61-2.8a2.54,2.54,0,0,0-2,.82,2.84,2.84,0,0,0-.71,2V135a1.09,1.09,0,0,1-2.17,0V126.8a1.09,1.09,0,1,1,2.17,0v.75a3.43,3.43,0,0,1,3.3-1.93,3.83,3.83,0,0,1,3.08,1.31,5,5,0,0,1,1.08,3.34Z"/><path class="cls-4" d="M315,127.15a5.51,5.51,0,0,1,1.3,3.75c0,.49-.28.73-.83.73h-6.87a2.73,2.73,0,0,0,3.1,2.79,3.82,3.82,0,0,0,2.67-1.13,1,1,0,0,1,.71-.35.8.8,0,0,1,.9.9,1,1,0,0,1-.28.62,5.12,5.12,0,0,1-4.09,1.68,5.06,5.06,0,0,1-3.91-1.56,5.23,5.23,0,0,1-1.33-3.7,5.17,5.17,0,0,1,1.46-3.77,4.94,4.94,0,0,1,3.69-1.49A4.43,4.43,0,0,1,315,127.15Zm-.65-4.12a.87.87,0,0,1,.25.58c0,.47-.26.71-.76.71a.75.75,0,0,1-.5-.18l-1.78-1.61-1.77,1.61a.79.79,0,0,1-.5.18c-.5,0-.76-.24-.76-.71a.87.87,0,0,1,.25-.58l2.23-2a.78.78,0,0,1,1.11,0Zm-.05,6.86a2.9,2.9,0,0,0-.87-1.79,2.85,2.85,0,0,0-4.78,1.79Zm-.69-8.45a.94.94,0,0,1-.79-.42l-1.26-1.73a1,1,0,0,1-.15-.25.81.81,0,0,1-.08-.34c0-.57.3-.85.9-.85a.89.89,0,0,1,.74.39l1.28,1.77a.68.68,0,0,1,.15.26.66.66,0,0,1,.08.32A.76.76,0,0,1,313.65,121.44Z"/><path class="cls-4" d="M328.79,135a1.08,1.08,0,1,1-2.16,0v-4.59c0-1.87-.86-2.8-2.6-2.8a2.56,2.56,0,0,0-2,.82,2.88,2.88,0,0,0-.7,2V135a1.09,1.09,0,0,1-2.17,0V126.8a1.09,1.09,0,1,1,2.17,0v.75a3.42,3.42,0,0,1,3.3-1.93,3.81,3.81,0,0,1,3.07,1.31,4.92,4.92,0,0,1,1.09,3.34Z"/><path class="cls-4" d="M342.39,135a1.08,1.08,0,1,1-2.15,0v-7.28h-1.75a.9.9,0,1,1,0-1.8h1.75v-3a1.08,1.08,0,1,1,2.15,0v3h2a.9.9,0,1,1,0,1.8h-2Z"/><path class="cls-4" d="M355.58,135a1.06,1.06,0,1,1-2.11,0v-.2a3.86,3.86,0,0,1-3.24,1.38,4.21,4.21,0,0,1-2.75-.86,2.93,2.93,0,0,1,.06-4.58,4.56,4.56,0,0,1,2.78-.79,4.4,4.4,0,0,1,3.11,1.17v-1c0-1.76-.92-2.65-2.76-2.65a6.4,6.4,0,0,0-1.26.13,7.35,7.35,0,0,0-1,.29l-.34.12a1.09,1.09,0,0,1-.37.07.81.81,0,0,1-.92-.9c0-.42.34-.76,1-1a8.21,8.21,0,0,1,3.08-.5c3.16,0,4.73,1.44,4.73,4.34Zm-2.93-3.13a3.25,3.25,0,0,0-1.68-.42c-1.59,0-2.39.54-2.39,1.62s.78,1.64,2.34,1.64a3.18,3.18,0,0,0,1.76-.46,1.31,1.31,0,0,0,0-2.38Zm-.24-8.58a2.64,2.64,0,0,0-.57.61.73.73,0,0,0,0,.31v.34c0,.38-.26.57-.77.57s-.77-.19-.77-.57v-.33a1.7,1.7,0,0,1,.26-.85,2.35,2.35,0,0,1,.33-.38l.3-.26c.43-.39.61-.69.55-.93s-.26-.34-.6-.32a1.63,1.63,0,0,0-.84.23,1.44,1.44,0,0,1-.23.13,1.6,1.6,0,0,1-.4,0c-.39,0-.57-.28-.52-.72,0-.15.11-.3.32-.44a3.12,3.12,0,0,1,1.83-.56,2.3,2.3,0,0,1,1.43.4,1.52,1.52,0,0,1,.64,1.2A2.22,2.22,0,0,1,352.41,123.25Z"/><path class="cls-4" d="M368.49,135a1.08,1.08,0,1,1-2.15,0v-4.59c0-1.87-.87-2.8-2.61-2.8a2.54,2.54,0,0,0-2,.82,2.84,2.84,0,0,0-.71,2V135a1.09,1.09,0,0,1-2.17,0V126.8a1.09,1.09,0,1,1,2.17,0v.75a3.42,3.42,0,0,1,3.3-1.93,3.8,3.8,0,0,1,3.07,1.31,4.92,4.92,0,0,1,1.09,3.34Z"/><path class="cls-4" d="M381.69,135.16a5.27,5.27,0,0,1-1.24,3.78,5.53,5.53,0,0,1-4.13,1.4,9.13,9.13,0,0,1-2-.21,7.81,7.81,0,0,1-2-.8,1,1,0,0,1-.57-.85.85.85,0,0,1,.46-.79,1,1,0,0,1,1.07.08,5.59,5.59,0,0,0,2.9.83,2.84,2.84,0,0,0,3.36-3.29v-1.47a3.73,3.73,0,0,1-3.49,1.93,4.56,4.56,0,0,1-3.56-1.5,5.63,5.63,0,0,1,0-7.17,4.57,4.57,0,0,1,3.56-1.48,3.81,3.81,0,0,1,3.57,1.93v-.75c0-.73.34-1.09,1-1.09a.93.93,0,0,1,1.05,1.07Zm-3-6.78a3.13,3.13,0,0,0-4.48,0,3.6,3.6,0,0,0,0,4.67,3.12,3.12,0,0,0,4.48,0,3.32,3.32,0,0,0,.84-2.31A3.28,3.28,0,0,0,378.69,128.38Z"/></g></svg>