<svg version="1.1" id="Layer_1" xmlns="http://www.w3.org/2000/svg" viewBox="0 0 278.7 278.7"><defs><style type="text/css">.st0{fill:#C8CED5;}</style></defs><path class="st0" d="M207.6,129L181.3,103c-1.6-1.6-4.1-1.6-5.9,0l-16,13.8c-1.1,1-1.6,2.2-1.3,3.5c0.3,1.5,1.5,2.8,3,3.3
	c1.5,0.5,3,0.2,4.2-0.8l12.9-11.1l23.5,23.3c0.8,0.8,1.8,1.2,2.9,1.2c0.3,0,0.7,0,1-0.1c1.5-0.4,2.8-1.7,3.2-3.2
	C209,131.5,208.6,130.1,207.6,129z"/><path class="st0" d="M177.1,129L150.8,103c-1.6-1.6-4.1-1.6-5.9,0l-16,13.8c-1.1,1-1.6,2.2-1.3,3.5c0.3,1.5,1.5,2.8,3,3.3
	c1.5,0.5,3,0.2,4.2-0.8l12.9-11.1l23.5,23.3c0.8,0.8,1.8,1.2,2.9,1.2c0.3,0,0.7,0,1-0.1c1.5-0.4,2.8-1.7,3.2-3.2
	C178.6,131.5,178.2,130.1,177.1,129z"/><path class="st0" d="M145.3,128.5c-11.7-11.4-23.3-22.8-35-34.2c-1.7-1.7-4.7-1.8-6.4,0c-12.1,12.7-24.2,25.4-36.3,38.1
	c-2.7,2.8-0.8,7.8,3.2,7.8c3.3,0,6.7,0,10,0c0,10.8,0,21.6,0,32.5c0,2.5,2.1,4.5,4.5,4.5c7.3,0,14.5,0,21.8,0
	c5.9,0,5.9-9.1,0-9.1c-5.8,0-11.5,0-17.3,0c0-10.8,0-21.6,0-32.5c0-2.5-2.1-4.5-4.5-4.5c-1.3,0-2.6,0-3.9,0
	c8.6-9,17.2-18.1,25.9-27.1c10.6,10.3,21.1,20.6,31.7,30.9C143,139,149.5,132.6,145.3,128.5z"/></svg>
