<?xml version="1.0" encoding="utf-8"?>
<!-- Generator: Adobe Illustrator 22.0.0, SVG Export Plug-In . SVG Version: 6.00 Build 0)  -->
<svg version="1.1" id="Layer_1" xmlns="http://www.w3.org/2000/svg" xmlns:xlink="http://www.w3.org/1999/xlink" x="0px" y="0px"
	 viewBox="0 0 124.3 124.3" style="enable-background:new 0 0 124.3 124.3;" xml:space="preserve">
<style type="text/css">
	.st0{fill:#FFFFFF;}
	.st1{opacity:0.2;fill:#FFFFFF;}
</style>
<g>
	<g>
		<g>
			<path class="st0" d="M62.1,41.6c-8.4,0-15.2,6.8-15.2,15.2C46.9,67.2,60.5,82.4,61,83c0.5,0.6,1.5,0.6,2,0
				c0.6-0.6,14.2-15.9,14.2-26.3C77.2,48.4,70.4,41.6,62.1,41.6z M62.1,64.4c-4.2,0-7.6-3.4-7.6-7.6s3.4-7.6,7.6-7.6
				s7.6,3.4,7.6,7.6S66.3,64.4,62.1,64.4z"/>
		</g>
	</g>
	<path class="st0" d="M62.2,124.3C27.9,124.3,0,96.4,0,62.2C0,27.9,27.9,0,62.2,0s62.2,27.9,62.2,62.2
		C124.3,96.4,96.4,124.3,62.2,124.3z M62.2,5C30.6,5,5,30.6,5,62.2c0,31.5,25.6,57.2,57.2,57.2s57.2-25.6,57.2-57.2
		C119.3,30.6,93.7,5,62.2,5z"/>
</g>
</svg>
