<svg id="Layer_1" xmlns="http://www.w3.org/2000/svg" viewBox="0 0 455.8 446.6">
<g>
	<g>
		<path d="M455.7,200.5c-0.2-3.4-1.8-6.5-4.3-8.8L236.3,3.2c-4.8-4.2-12.1-4.2-16.9,0L4.4,191.7c-5.3,4.7-5.8,12.8-1.2,18.1
			c4.7,5.3,12.8,5.8,18.1,1.2l21.6-19v241.8c0,7.1,5.7,12.8,12.8,12.8H400c7.1,0,12.8-5.7,12.8-12.8V192l21.6,19
			c2.3,2,5.3,3.2,8.4,3.2c3.7,0,7.2-1.6,9.6-4.4C454.8,207.2,455.9,203.9,455.7,200.5z M267.4,421l-79,0V284.7h79V421z M387.2,171.1
			V421H293V271.9c0-7.1-5.7-12.8-12.8-12.8H175.5c-7.1,0-12.8,5.7-12.8,12.8V421H68.5V171.1c0-0.1,0-0.1,0-0.2v-1.4L227.9,29.8
			l159.3,139.6l0.1,1.5L387.2,171.1z"/>
		<path d="M252.5,132.3h-49.2c-7.1,0-12.8,5.7-12.8,12.8s5.7,12.8,12.8,12.8h49.2c7.1,0,12.8-5.7,12.8-12.8S259.5,132.3,252.5,132.3
			z"/>
	</g>
</g>
</svg>
