<?xml version="1.0" encoding="utf-8"?>
<!-- Generator: Adobe Illustrator 22.0.0, SVG Export Plug-In . SVG Version: 6.00 Build 0)  -->
<svg version="1.1" id="Layer_1" xmlns="http://www.w3.org/2000/svg" xmlns:xlink="http://www.w3.org/1999/xlink" x="0px" y="0px"
	 viewBox="0 0 115 115" style="enable-background:new 0 0 115 115;" xml:space="preserve">
<style type="text/css">
	.st0{fill:#FFFFFF;}
	.st1{opacity:0.2;fill:#FFFFFF;}
</style>
<g>
	<circle class="st1" cx="57.5" cy="57.5" r="57.5"/>
	<g>
		<path class="st0" d="M43.3,78.5c3.6,0,6.5-3,6.5-6.6s-2.9-6.6-6.5-6.6s-6.6,3-6.6,6.6S39.7,78.5,43.3,78.5z"/>
		<path class="st0" d="M57.8,77.1c0,0.4,0,0.9-0.1,1.3h7.8c0-0.4,0.1-0.9,0.1-1.3C65.7,62,53.2,49.5,38,49.5c-0.4,0-0.9,0-1.3,0.1
			v7.8c0.4,0,0.9-0.1,1.3-0.1C48.8,57.4,57.8,66.3,57.8,77.1z"/>
		<path class="st0" d="M38,33.8c-0.4,0-0.9,0.1-1.3,0.1v7.8c0.4,0,0.9-0.1,1.3-0.1c19.5,0,35.5,16,35.5,35.5c0,0.4-0.1,0.9-0.1,1.3
			h7.8c0-0.4,0.1-0.9,0.1-1.3C81.4,53.3,61.9,33.8,38,33.8z"/>
	</g>
</g>
</svg>
