<svg id="Capa_1" data-name="Capa 1" xmlns="http://www.w3.org/2000/svg" viewBox="0 0 379.6 474"><defs><style>.cls-1{fill:#2fa7de;}</style></defs><title>icon</title><path class="cls-1" d="M189.7,0C85.1,0,0,85.1,0,189.7a186.39,186.39,0,0,0,3.37,35.61c.09.63.45,2.57,1.29,6.36a187.18,187.18,0,0,0,12.7,37.4C37.92,317.48,83.2,391.82,182.24,471.33a12,12,0,0,0,15.12,0c99.09-79.63,144.35-153.92,164.86-202.22a185.59,185.59,0,0,0,12.72-37.44c.84-3.79,1.2-5.73,1.27-6.28a195.26,195.26,0,0,0,3.39-35.69C379.4,85.1,294.21,0,189.7,0ZM352.39,221.09a3,3,0,0,1-.08.47v0l0,.21c-.1.53-.39,2-.87,4.17l0,.37a160.43,160.43,0,0,1-11.2,32.9l-.1.21a1.53,1.53,0,0,1-.14.29c-18.6,44-59.58,111.93-149.26,186l-1,.78-1-.78c-89.68-74.1-130.66-142-149.26-186a2.43,2.43,0,0,1-.14-.28l-.1-.22A170.55,170.55,0,0,1,28,226.34l0-.35c-.46-1.78-.68-3.08-.8-3.79,0-.17-.05-.31-.07-.41l0-.21A3.29,3.29,0,0,1,27,221a165.08,165.08,0,0,1-3-31.37C24,98.23,98.33,23.9,189.7,23.9S355.4,98.23,355.4,189.6A164.31,164.31,0,0,1,352.39,221.09Z"/><path class="cls-1" d="M189.7,71.9A119.9,119.9,0,1,0,309.6,191.8,120,120,0,0,0,189.7,71.9Zm0,215.8a95.9,95.9,0,1,1,95.9-95.9A96,96,0,0,1,189.7,287.7Z"/></svg>