<svg xmlns="http://www.w3.org/2000/svg"><symbol viewBox="0 0 115 115" id="svg"><g>
	<path class="st0" d="M58.2,32.3C44,32.3,32.5,43.8,32.5,58c0,10.9,6.8,20.2,16.3,24c0-0.9,0-5.4,3.1-19c0.4-4.5-0.2-6.2-0.2-8
		c0-4.3,2.2-5.2,3.5-5.2c1.9,0,4.4,0.7,4.4,3.7c0,3.4-2.8,4.3-2.8,4.3s-0.2,0.9-0.4,3.3c-0.2,2.4,0.7,5.1,4.7,5.1
		c6.4,0,7.3-8.8,7.3-11.3c0-3.4-2.5-10.2-10.1-10.2c-10.2,0-11.9,9.1-11.9,11.6c0,1,0.3,2.9,0.5,3.7c1.9,0.3,1.7,2.9,0.9,3.7
		c-0.9,0.8-5.6,1.8-5.6-8.5c0-9.8,8.8-14.9,16.4-14.9c7.3,0,15.3,5,15.3,14.8c0,8.7-6.2,15.5-12.8,15.5c-3.9,0-6-3.2-6-3.2
		c0,3-5.6,13.5-6.3,14.8c2.9,1.1,6,1.8,9.3,1.8C72.5,83.8,84,72.2,84,58S72.5,32.3,58.2,32.3z"/>
</g></symbol></svg>
