<?xml version="1.0" encoding="utf-8"?>
<!-- Generator: Adobe Illustrator 22.0.0, SVG Export Plug-In . SVG Version: 6.00 Build 0)  -->
<svg version="1.1" id="Layer_1" xmlns="http://www.w3.org/2000/svg" xmlns:xlink="http://www.w3.org/1999/xlink" x="0px" y="0px"
	 viewBox="0 0 124.3 124.3" style="enable-background:new 0 0 124.3 124.3;" xml:space="preserve">
<style type="text/css">
	.st0{fill:#FFFFFF;}
	.st1{opacity:0.2;fill:#FFFFFF;}
</style>
<g>
	<path class="st0" d="M62.2,124.3C27.9,124.3,0,96.4,0,62.2C0,27.9,27.9,0,62.2,0s62.2,27.9,62.2,62.2
		C124.3,96.4,96.4,124.3,62.2,124.3z M62.2,5C30.6,5,5,30.6,5,62.2c0,31.5,25.6,57.2,57.2,57.2s57.2-25.6,57.2-57.2
		C119.3,30.6,93.7,5,62.2,5z"/>
	<g>
		<g>
			<path class="st0" d="M44.6,54.7c0.6,0.4,2.2,1.5,5,3.5c2.8,1.9,4.9,3.4,6.4,4.4c0.2,0.1,0.5,0.4,1,0.7c0.5,0.4,1,0.7,1.3,0.9
				c0.3,0.2,0.8,0.5,1.3,0.8c0.5,0.3,1,0.5,1.4,0.7c0.4,0.1,0.8,0.2,1.2,0.2h0h0c0.4,0,0.8-0.1,1.2-0.2c0.4-0.1,0.9-0.4,1.4-0.7
				c0.5-0.3,0.9-0.6,1.3-0.8c0.3-0.2,0.8-0.5,1.3-0.9c0.5-0.4,0.9-0.6,1-0.7c1.5-1,5.3-3.7,11.4-7.9c1.2-0.8,2.2-1.8,3-3
				c0.8-1.2,1.2-2.4,1.2-3.7c0-1.1-0.4-2-1.2-2.7c-0.8-0.8-1.7-1.1-2.7-1.1H44.3c-1.2,0-2.2,0.4-2.9,1.3c-0.7,0.8-1,1.9-1,3.2
				c0,1,0.4,2.1,1.3,3.3C42.6,53.1,43.6,54,44.6,54.7z"/>
			<path class="st0" d="M81.5,57.3c-5.3,3.6-9.3,6.4-12.1,8.4c-0.9,0.7-1.7,1.2-2.2,1.6c-0.6,0.4-1.3,0.8-2.3,1.2
				c-1,0.4-1.8,0.6-2.7,0.6h0h0c-0.8,0-1.7-0.2-2.7-0.6c-1-0.4-1.7-0.8-2.3-1.2c-0.6-0.4-1.3-0.9-2.2-1.6c-2.2-1.6-6.2-4.4-12.1-8.4
				c-0.9-0.6-1.7-1.3-2.5-2.1v19.3c0,1.1,0.4,2,1.1,2.7c0.8,0.8,1.7,1.1,2.7,1.1H80c1.1,0,2-0.4,2.7-1.1c0.8-0.8,1.1-1.7,1.1-2.7
				V55.2C83.2,56,82.4,56.7,81.5,57.3z"/>
		</g>
	</g>
</g>
</svg>
