<?xml version="1.0" encoding="utf-8"?>
<!-- Generator: Adobe Illustrator 22.0.0, SVG Export Plug-In . SVG Version: 6.00 Build 0)  -->
<svg version="1.1" id="Layer_1" xmlns="http://www.w3.org/2000/svg" xmlns:xlink="http://www.w3.org/1999/xlink" x="0px" y="0px"
	 viewBox="0 0 115 115" style="enable-background:new 0 0 115 115;" xml:space="preserve">
<style type="text/css">
	.st0{fill:#FFFFFF;}
	.st1{opacity:0.2;fill:#FFFFFF;}
</style>
<g>
	<circle class="st1" cx="57.5" cy="57.5" r="57.5"/>
	<g>
		<path class="st0" d="M71.2,29.5l-7.1,0c-8,0-13.1,5.3-13.1,13.5v6.2h-7.1c-0.6,0-1.1,0.5-1.1,1.1v9c0,0.6,0.5,1.1,1.1,1.1H51v22.7
			c0,0.6,0.5,1.1,1.1,1.1h9.3c0.6,0,1.1-0.5,1.1-1.1V60.4h8.3c0.6,0,1.1-0.5,1.1-1.1l0-9c0-0.3-0.1-0.6-0.3-0.8
			c-0.2-0.2-0.5-0.3-0.8-0.3h-8.3v-5.3c0-2.5,0.6-3.8,3.9-3.8l4.8,0c0.6,0,1.1-0.5,1.1-1.1v-8.3C72.3,30,71.8,29.5,71.2,29.5z"/>
	</g>
</g>
</svg>
