<svg xmlns="http://www.w3.org/2000/svg"><symbol viewBox="0 0 115 115" id="svg"><g>
	<path d="M85.1,41.2c-0.1-0.1-0.2-0.1-0.3-0.1c-1.6,0.7-3.3,1.2-5,1.5c1.8-1.4,3.2-3.3,3.9-5.5c0-0.1,0-0.2-0.1-0.3
		c-0.1-0.1-0.2-0.1-0.3,0c-2.1,1.2-4.3,2.1-6.7,2.6c-2.1-2.2-5-3.4-8-3.4c-6.1,0-11.1,5-11.1,11.1c0,0.7,0.1,1.5,0.2,2.2
		c-8.5-0.5-16.4-4.6-21.8-11.2c-0.1-0.1-0.1-0.1-0.2-0.1c-0.1,0-0.2,0.1-0.2,0.1c-1,1.7-1.5,3.6-1.5,5.6c0,3.4,1.5,6.6,4.2,8.7
		c-1.4-0.2-2.7-0.6-3.9-1.3c-0.1,0-0.2,0-0.3,0c-0.1,0-0.1,0.1-0.1,0.2l0,0.1c0,4.9,3.2,9.2,7.8,10.6c-1.2,0.2-2.5,0.2-3.7-0.1
		c-0.1,0-0.2,0-0.2,0.1c-0.1,0.1-0.1,0.2-0.1,0.3c1.4,4.3,5.2,7.3,9.6,7.7c-3.7,2.7-8.1,4.1-12.7,4.1c-0.9,0-1.7-0.1-2.6-0.1
		c-0.1,0-0.2,0.1-0.3,0.2c0,0.1,0,0.2,0.1,0.3c5,3.2,10.8,4.9,16.8,4.9c19.5,0,31.1-15.8,31.1-31.1c0-0.4,0-0.8,0-1.3
		c2.1-1.5,3.9-3.4,5.4-5.6C85.2,41.4,85.2,41.3,85.1,41.2z"/>
</g></symbol></svg>