<?xml version="1.0" encoding="utf-8"?>
<!-- Generator: Adobe Illustrator 22.0.0, SVG Export Plug-In . SVG Version: 6.00 Build 0)  -->
<svg version="1.1" id="Layer_1" xmlns="http://www.w3.org/2000/svg" xmlns:xlink="http://www.w3.org/1999/xlink" x="0px" y="0px"
	 viewBox="0 0 451.4 451.4" style="enable-background:new 0 0 451.4 451.4;" xml:space="preserve">
<g>
	<path d="M425,402.5c2.5,2.5,6.1,3.6,9.6,3c3.5-0.6,6.5-2.9,8-6c16.6-34.8,9.5-76.4-17.6-103.4c-21-21-51.1-30.5-80.5-25.3l-1.3,0.2
		l-54.9-54.8l86-86l11.2,11.2c2.6,2.6,6.1,3.7,9.6,3c3.6-0.6,6.5-2.9,8-6.2l47.3-104c1.9-4.1,1-9-2.2-12.2L429.3,3.2
		c-3.2-3.2-8.1-4.1-12.2-2.2l-104,47.3c-3.3,1.5-5.5,4.4-6.2,8c-0.6,3.6,0.4,7.1,3,9.6l11.2,11.2l-86,86l-54.8-54.9l0.2-1.3
		c5.2-29.4-4.2-59.4-25.3-80.5C128.3-0.6,86.7-7.7,51.9,8.9c-3.2,1.5-5.4,4.5-6,8c-0.6,3.5,0.5,7,3,9.5l31.3,31.2v22.7H57.6
		L26.4,48.8c-2.5-2.5-6-3.6-9.5-3c-3.5,0.6-6.5,2.9-8,6c-19.5,41.1-6.2,89.4,31.6,115c19.4,13.1,43,18,66.5,13.8l1.3-0.2l26,26.1
		l-5.5,0.4c-9.1,0.6-17.7,4.5-24.1,10.9c-11.3,11.3-14.2,28.5-7.4,42.8l0.8,1.6L11,349.4C3.9,356.5,0,366,0,376
		c0,10,3.9,19.5,11,26.6l37.8,37.8c14.7,14.7,38.5,14.7,53.2,0l87.2-87.2l1.6,0.8c14.4,6.8,31.6,3.9,42.8-7.3
		c6.4-6.4,10.3-15,10.9-24.1l0.4-5.5l26.1,26l-0.2,1.3c-4.2,23.5,0.7,47.1,13.8,66.5c25.5,37.9,73.9,51.2,115,31.6
		c3.2-1.5,5.4-4.5,6-8c0.6-3.5-0.5-7-3-9.5l-31.4-31.2v-21.7h22.7L425,402.5z M419.3,23.9l8.3,8.3L389.9,115l-2.6-2.5
		c-0.6-0.6-12-12-23.6-23.5l-27.4-27.4L419.3,23.9z M119.5,160.7c-2.7-2.7-6.7-3.8-10.5-2.8c-19.2,5.1-40.3,1.7-56.3-9.1
		c-22.5-15.2-34.1-41.1-30.2-67.6l0.7-4.8l22.2,21.5c2.1,2.1,4.8,3.2,7.7,3.2h38c6,0,10.9-4.9,10.9-10.9V53c0-2.9-1.2-5.7-3.2-7.7
		L76.4,23.1l5-0.7c21.5-3.1,43.4,4.2,58.6,19.4c17.5,17.5,24.3,43.1,18,67c-1,3.7,0.1,7.8,2.8,10.5l59,59.1L206,192.3l-1.6-0.8
		c-14.3-6.9-31.6-3.9-42.8,7.4l-2,2L119.5,160.7z M86.7,425c-3,3-7,4.6-11.2,4.6c-4.2,0-8.2-1.6-11.2-4.6l-37.8-37.8
		c-3-3-4.7-7-4.7-11.2c0-4.2,1.7-8.2,4.7-11.2l86.1-86.1l60.3,60.3L86.7,425z M218.3,331.2c-3,3-7,4.6-11.2,4.6
		c-4.2,0-8.2-1.6-11.2-4.6l-75.6-75.6c-6.2-6.2-6.2-16.3,0-22.4s16.3-6.2,22.4,0l75.6,75.6c3,3,4.6,7,4.6,11.2
		S221.3,328.2,218.3,331.2z M237.2,274.5L226,285.7l-60.3-60.3l11.2-11.2c6.2-6.2,16.3-6.2,22.4,0l37.8,37.8
		C243.4,258.2,243.4,268.3,237.2,274.5z M244.9,229l-22.4-22.4L336.5,92.4l22.4,22.4L244.9,229z M360.6,349.4c-6,0-11.1,5-11.1,10.9
		v38c0,2.9,1.1,5.6,3.2,7.7l22.5,22.2l-5,0.7c-3.4,0.5-6.7,0.7-10,0.7c-22.9,0-44.3-11.3-57.5-31c-10.8-16-14.2-37-9.1-56.2
		c1-3.7-0.1-7.7-2.8-10.5l-40.2-40.1l2-2c11.2-11.2,14.2-28.4,7.3-42.8l-0.8-1.6l13.8-13.8l59.1,59c2.7,2.7,6.8,3.8,10.5,2.8
		c23.9-6.4,49.6,0.5,67,18c15.2,15.2,22.4,37.1,19.4,58.6l-0.7,5l-22.2-22.2c-2.1-2.1-4.9-3.3-7.7-3.3H360.6z"/>
	<g>
		<g>
			<path d="M122,329.5c-5.2-5.2-13.7-5.2-18.9,0L66,366.5c-5.2,5.2-5.2,13.7,0,18.9c5.2,5.2,13.7,5.2,18.9,0l37.1-37.1
				C127.2,343.1,127.2,334.7,122,329.5z"/>
		</g>
	</g>
</g>
</svg>
