<?xml version="1.0" encoding="utf-8"?>
<!-- Generator: Adobe Illustrator 22.0.0, SVG Export Plug-In . SVG Version: 6.00 Build 0)  -->
<svg version="1.1" id="Layer_1" xmlns="http://www.w3.org/2000/svg" xmlns:xlink="http://www.w3.org/1999/xlink" x="0px" y="0px"
	 viewBox="0 0 115 115" style="enable-background:new 0 0 115 115;" xml:space="preserve">
<style type="text/css">
	.st0{fill:#FFFFFF;}
	.st1{opacity:0.2;fill:#FFFFFF;}
</style>
<g>
	<circle class="st1" cx="57.5" cy="57.5" r="57.5"/>
	<g>
		<path class="st0" d="M47.6,40.9c5.4,0,10.3,2.8,13.1,6.6l6.6-6.7c-4-5.2-11.6-9.3-19.7-9.3c-14.2,0-25.9,11.5-25.9,25.7
			s11.7,25.7,25.9,25.7c11.8,0,21.7-7.9,24.8-18.7c0.7-2.2,1-4.6,1-7V55H50v9.4h12.4c-2.6,5.5-8.2,9.4-14.7,9.4
			c-9,0-16.5-7.3-16.5-16.4S38.6,40.9,47.6,40.9z"/>
		<path class="st0" d="M92.4,45.6h-9.4v7h-7V62h7v7h9.4v-7h7.2v-9.4h-7.2V45.6z"/>
	</g>
</g>
</svg>
