<?xml version="1.0" encoding="utf-8"?>
<!-- Generator: Adobe Illustrator 22.0.0, SVG Export Plug-In . SVG Version: 6.00 Build 0)  -->
<svg version="1.1" id="Layer_1" xmlns="http://www.w3.org/2000/svg" xmlns:xlink="http://www.w3.org/1999/xlink" x="0px" y="0px"
	 viewBox="0 0 115 115" style="enable-background:new 0 0 115 115;" xml:space="preserve">
<style type="text/css">
	.st0{fill:#FFFFFF;}
	.st1{opacity:0.2;fill:#FFFFFF;}
</style>
<g>
	<circle class="st1" cx="57.5" cy="57.5" r="57.5"/>
	<g>
		<g>
			<path class="st0" d="M81.3,58.2c-0.6-2.6-2.7-4.5-5.3-4.8c-6.1-0.7-12.2-0.7-18.3-0.7c-6.1,0-12.2,0-18.3,0.7
				c-2.6,0.3-4.7,2.2-5.3,4.8c-0.9,3.7-0.9,7.7-0.9,11.6c0,3.8,0,7.9,0.9,11.6c0.6,2.6,2.7,4.5,5.3,4.8c6.1,0.7,12.2,0.7,18.3,0.7
				c6.1,0,12.2,0,18.3-0.7c2.6-0.3,4.7-2.2,5.3-4.8c0.9-3.7,0.9-7.7,0.9-11.6C82.1,65.9,82.1,61.9,81.3,58.2z M47.2,61h-3.5v18.8
				h-3.3V61h-3.5V58h10.3V61z M56.1,79.8h-3v-1.8c-1.2,1.3-2.3,2-3.4,2c-1,0-1.6-0.4-1.9-1.2c-0.2-0.5-0.3-1.3-0.3-2.4V63.5h3v12
				c0,0.7,0,1.1,0,1.1c0.1,0.5,0.3,0.7,0.7,0.7c0.6,0,1.2-0.5,1.9-1.4V63.5h3L56.1,79.8L56.1,79.8z M67.4,74.9
				c0,1.5-0.1,2.6-0.3,3.3c-0.4,1.2-1.2,1.8-2.4,1.8c-1.1,0-2.1-0.6-3.1-1.8v1.6h-3V58h3v7.1c1-1.2,2-1.8,3.1-1.8
				c1.2,0,2,0.6,2.4,1.8c0.2,0.7,0.3,1.7,0.3,3.3V74.9z M78.5,72.2h-5.9v2.9c0,1.5,0.5,2.3,1.5,2.3c0.7,0,1.2-0.4,1.3-1.2
				c0-0.2,0.1-0.8,0.1-2h3v0.4c0,1,0,1.6-0.1,1.9c-0.1,0.7-0.3,1.2-0.7,1.8c-0.8,1.2-2,1.8-3.6,1.8c-1.5,0-2.7-0.6-3.6-1.7
				c-0.6-0.8-0.9-2.1-0.9-3.8v-5.7c0-1.7,0.3-3,0.9-3.8c0.9-1.1,2-1.7,3.5-1.7c1.5,0,2.7,0.6,3.5,1.7c0.6,0.8,0.9,2.1,0.9,3.8
				L78.5,72.2L78.5,72.2z"/>
			<path class="st0" d="M74.1,66c-1,0-1.5,0.8-1.5,2.3v1.5h3v-1.5C75.5,66.7,75.1,66,74.1,66z"/>
			<path class="st0" d="M63.1,66c-0.5,0-1,0.2-1.5,0.7v9.9c0.5,0.5,1,0.7,1.5,0.7c0.9,0,1.3-0.7,1.3-2.2v-7C64.4,66.7,64,66,63.1,66
				z"/>
			<path class="st0" d="M64.8,51.2c1.1,0,2.2-0.7,3.4-2V51h3V34.5h-3v12.6c-0.7,0.9-1.3,1.4-1.9,1.4c-0.4,0-0.6-0.2-0.7-0.7
				c0-0.1,0-0.5,0-1.2V34.5h-3v13c0,1.2,0.1,2,0.3,2.4C63.1,50.8,63.8,51.2,64.8,51.2z"/>
			<path class="st0" d="M44,42v9h3.3v-9l4-13.2h-3.3l-2.3,8.7l-2.3-8.7h-3.5c0.7,2,1.4,4.1,2.1,6.2C43,38.1,43.7,40.4,44,42z"/>
			<path class="st0" d="M55.7,51.2c1.5,0,2.7-0.6,3.5-1.7c0.6-0.8,0.9-2.1,0.9-3.9v-5.8c0-1.8-0.3-3-0.9-3.9c-0.8-1.1-2-1.7-3.5-1.7
				c-1.5,0-2.6,0.6-3.5,1.7c-0.6,0.8-0.9,2.1-0.9,3.9v5.8c0,1.8,0.3,3,0.9,3.9C53.1,50.6,54.2,51.2,55.7,51.2z M54.3,39.3
				c0-1.5,0.5-2.3,1.4-2.3c1,0,1.4,0.8,1.4,2.3v6.9c0,1.5-0.5,2.3-1.4,2.3c-1,0-1.4-0.8-1.4-2.3V39.3z"/>
		</g>
	</g>
</g>
</svg>
