<svg id="Capa_1" data-name="Capa 1" xmlns="http://www.w3.org/2000/svg" viewBox="0 0 488.95 488.95"><defs><style>.cls-1{fill:#0578fa;}</style></defs><title>icon</title><path class="cls-1" d="M462.7,134.49a7.27,7.27,0,0,0-.41-.84l-.16-.3h0A246.05,246.05,0,0,0,373.65,37a243.86,243.86,0,0,0-258.39,0,246.22,246.22,0,0,0-88.47,96.39c-.05.1-.11.19-.16.28a6.44,6.44,0,0,0-.34.7,243.54,243.54,0,0,0,0,220.13,6.44,6.44,0,0,0,.34.7c.05.09.11.18.16.28a246.07,246.07,0,0,0,88.47,96.39,243.89,243.89,0,0,0,258.39,0,246.08,246.08,0,0,0,88.48-96.33l.16-.29a6.8,6.8,0,0,0,.4-.81,243.58,243.58,0,0,0,0-220Zm-139,227.43c-17.6,64.1-47.9,103.86-79.24,103.86S182.84,426,165.24,361.92ZM165.24,127c17.6-64.1,47.9-103.86,79.23-103.86S306.11,62.93,323.71,127ZM444.39,150.2a218.65,218.65,0,0,1,20.8,82.69H361.77a487.79,487.79,0,0,0-8.58-82.69Zm-91.2,188.55a486.93,486.93,0,0,0,8.58-82.69H465.19a218.65,218.65,0,0,1-20.8,82.69ZM348,127c-10.4-40.4-26-73.41-45.12-95.76A220.48,220.48,0,0,1,431.67,127Zm-9.48,105.86h-188a460.18,460.18,0,0,1,9.21-82.69h169.6A458.27,458.27,0,0,1,338.48,232.89Zm0,23.17a460.39,460.39,0,0,1-9.21,82.69H159.68a458.48,458.48,0,0,1-9.21-82.69ZM57.27,127A220.54,220.54,0,0,1,186.1,31.27C167,53.62,151.39,86.63,141,127Zm78.49,23.17a486.93,486.93,0,0,0-8.58,82.69H23.76a218.65,218.65,0,0,1,20.8-82.69ZM44.56,338.75a218.65,218.65,0,0,1-20.8-82.69H127.18a487.79,487.79,0,0,0,8.58,82.69ZM141,361.92c10.4,40.41,26,73.41,45.12,95.76A220.52,220.52,0,0,1,57.28,361.92Zm290.69,0a220.52,220.52,0,0,1-128.82,95.76C322,435.33,337.56,402.33,348,361.92Z"/></svg>