<?xml version="1.0" encoding="utf-8"?>
<!-- Generator: Adobe Illustrator 22.0.0, SVG Export Plug-In . SVG Version: 6.00 Build 0)  -->
<svg version="1.1" id="Layer_1" xmlns="http://www.w3.org/2000/svg" xmlns:xlink="http://www.w3.org/1999/xlink" x="0px" y="0px"
	 viewBox="0 0 440.2 454.3" style="enable-background:new 0 0 440.2 454.3;" xml:space="preserve">
<g>
	<path d="M167.5,372.8c0,7.2,5.8,13,13,13h78.6c7.2,0,13-5.8,13-13v-9.2c-0.1-7.2,0.3-12.3,1.1-15.2c4.4-16.1,17.4-31.3,28.9-44.8
		l0.5-0.6c3.3-3.9,6.4-7.5,9.2-11c16.3-20.7,25-45.6,25-71.9c0-64.3-52.3-116.6-116.6-116.6c-64.3,0-116.6,52.3-116.6,116.6
		c0,26.3,8.6,51.2,24.9,71.9c3.2,4.1,6.7,8.1,10.3,12.3l0.2,0.2c11.3,13.1,23,26.6,27.4,42.8c0.8,3.1,1.2,8.6,1.1,16.4V372.8z
		 M158.7,287.5l-0.2-0.2c-3.4-4-6.6-7.7-9.6-11.4c-12.7-16.1-19.4-35.4-19.4-55.8c0-49.9,40.6-90.6,90.6-90.6
		c49.9,0,90.5,40.6,90.5,90.6c0,20.4-6.7,39.7-19.4,55.8c-2.5,3.2-5.4,6.6-8.5,10.3l-0.6,0.7c-13.1,15.5-28,33-34,54.6
		c-0.8,2.9-1.8,7.4-2,16.3l-0.1,1.9h-52.6l0-2c-0.2-9.5-1.2-14.2-2-17.3C185.5,318.6,170.6,301.4,158.7,287.5z"/>
	<path d="M180.5,420.1h78.6c7.2,0,13-5.8,13-13c0-7.2-5.8-13-13-13h-78.6c-7.2,0-13,5.8-13,13C167.5,414.2,173.3,420.1,180.5,420.1z
		"/>
	<path d="M239.4,428.3h-39.3c-7.2,0-13,5.8-13,13c0,7.2,5.8,13,13,13h39.3c7.2,0,13-5.8,13-13C252.5,434.1,246.6,428.3,239.4,428.3z
		"/>
	<path d="M427.2,207.1h-51.8c-7.2,0-13,5.8-13,13c0,7.2,5.8,13,13,13h51.8c7.2,0,13-5.8,13-13C440.2,212.9,434.4,207.1,427.2,207.1z
		"/>
	<path d="M64.8,207.1H13c-7.2,0-13,5.8-13,13c0,7.2,5.8,13,13,13h51.8c7.2,0,13-5.8,13-13C77.8,212.9,72,207.1,64.8,207.1z"/>
	<path d="M233.1,13c0-7.2-5.8-13-13-13s-13,5.8-13,13v51.8c0,7.2,5.8,13,13,13s13-5.8,13-13V13z"/>
	<path d="M329.9,316.9c-3.3,0-6.7,1.3-9.2,3.8c-5.1,5.1-5.1,13.3,0,18.4l36.6,36.6c2.5,2.5,5.7,3.8,9.2,3.8c3.5,0,6.7-1.4,9.2-3.8
		c5.1-5.1,5.1-13.3,0-18.4l-36.6-36.6h0C336.6,318.2,333.3,316.9,329.9,316.9z"/>
	<path d="M110.3,123.3c3.5,0,6.7-1.4,9.2-3.8c2.5-2.5,3.8-5.7,3.8-9.2s-1.4-6.7-3.8-9.2L82.9,64.5c-5.1-5.1-13.3-5.1-18.4,0
		c-5.1,5.1-5.1,13.3,0,18.4l36.6,36.6h0C103.5,121.9,106.8,123.3,110.3,123.3z"/>
	<path d="M60.7,366.6c0,3.5,1.4,6.7,3.8,9.2c2.5,2.5,5.7,3.8,9.2,3.8s6.7-1.4,9.2-3.8l36.6-36.6c2.5-2.5,3.8-5.7,3.8-9.2
		c0-3.5-1.4-6.7-3.8-9.2c-5.1-5.1-13.3-5.1-18.4,0h0l-36.6,36.6C62,359.8,60.7,363.1,60.7,366.6z"/>
	<path d="M320.8,101.1c-2.5,2.5-3.8,5.7-3.8,9.2c0,3.5,1.4,6.7,3.8,9.2c2.5,2.5,5.7,3.8,9.2,3.8c3.5,0,6.7-1.4,9.2-3.8l36.6-36.6
		c2.5-2.5,3.8-5.7,3.8-9.2c0-3.5-1.4-6.7-3.8-9.2s-5.7-3.8-9.2-3.8c-3.5,0-6.7,1.4-9.2,3.8L320.8,101.1z"/>
</g>
</svg>
