<?xml version="1.0" encoding="utf-8"?>
<!-- Generator: Adobe Illustrator 22.0.0, SVG Export Plug-In . SVG Version: 6.00 Build 0)  -->
<svg version="1.1" id="Layer_1" xmlns="http://www.w3.org/2000/svg" xmlns:xlink="http://www.w3.org/1999/xlink" x="0px" y="0px"
	 viewBox="0 0 403 403" style="enable-background:new 0 0 403 403;" xml:space="preserve">
<g>
	<path d="M73.7,169.3c-7,0-12.6,5.7-12.6,12.6V221c0,7,5.7,12.6,12.6,12.6s12.6-5.7,12.6-12.6v-39.1c0-3.4-1.3-6.5-3.7-8.9
		C80.2,170.6,77.1,169.3,73.7,169.3z"/>
	<path d="M116.3,4.8c-7.7-5.3-17.5-6.3-27-2.7L27.8,26.7C8,34,0,45,0,64.6v273.6c0,19.6,8,30.6,27.5,37.8l62,24.8
		c3.8,1.4,7.6,2.1,11.3,2.1c16.4,0,28.7-13.8,28.7-32.1V32.1C129.4,20.5,124.7,10.6,116.3,4.8z M104.2,32.1v338.8
		c0,3.3-1.1,6.9-3.5,6.9c-0.7,0-1.5-0.2-2.2-0.4l-62-24.8c-10.4-3.9-11.3-5.8-11.3-14.2V64.6c0-8.4,0.9-10.4,11.6-14.3l61.5-24.6
		c0.9-0.3,1.7-0.5,2.4-0.5C103.5,25.2,104.2,29.5,104.2,32.1z"/>
	<path d="M159.2,51.2h74.9c7.4,0,13.4,6,13.4,13.4v92.8c0,7,5.7,12.6,12.6,12.6c7,0,12.6-5.7,12.6-12.6V64.6
		c0-21.3-17.3-38.7-38.7-38.7h-74.9c-7,0-12.6,5.7-12.6,12.6S152.2,51.2,159.2,51.2z"/>
	<path d="M260.1,232.8c-7,0-12.6,5.7-12.6,12.6v92.8c0,7.4-6,13.4-13.4,13.4H160c-7,0-12.6,5.7-12.6,12.6s5.7,12.6,12.6,12.6h74.1
		c21.3,0,38.7-17.3,38.7-38.7v-92.8C272.8,238.4,267.1,232.8,260.1,232.8z"/>
	<path d="M402.1,196.6c-0.6-1.6-1.6-2.9-2.7-4.1l-65.1-65.1c-4.9-4.9-12.9-4.9-17.8,0c-2.4,2.4-3.7,5.6-3.7,8.9
		c0,3.4,1.3,6.5,3.7,8.9l43.6,43.6H173c-7,0-12.6,5.7-12.6,12.6S166,214,173,214h187l-43.6,43.6c-2.4,2.4-3.7,5.6-3.7,8.9
		c0,3.4,1.3,6.5,3.7,8.9c2.4,2.4,5.6,3.7,8.9,3.7c3.4,0,6.5-1.3,8.9-3.7l65.1-65.1c1.2-1.2,2.1-2.6,2.7-4.1
		C403.3,203.2,403.3,199.7,402.1,196.6z"/>
</g>
</svg>
