<svg id="Capa_1" data-name="Capa 1" xmlns="http://www.w3.org/2000/svg" viewBox="0 0 480.3 364.8"><defs><style>.cls-1{fill:#df374b;}</style></defs><title>icon</title><path class="cls-1" d="M422.8,0H57.6A57.67,57.67,0,0,0,0,57.6V307.2a57.67,57.67,0,0,0,57.6,57.6H422.7a57.67,57.67,0,0,0,57.6-57.6V57.7A57.58,57.58,0,0,0,422.8,0Zm0,340.8H57.6A33.63,33.63,0,0,1,24,307.2V57.7A33.63,33.63,0,0,1,57.6,24.1H422.7a33.63,33.63,0,0,1,33.6,33.6v248l.1,1.5A33.63,33.63,0,0,1,422.8,340.8Z"/><path class="cls-1" d="M68.6,313.6a12,12,0,0,0,8.18-3.2l121.9-114,33.82,30.21a12,12,0,0,0,8,3,11.91,11.91,0,0,0,8-3.1l34.75-31.14,121.2,115.15a11.86,11.86,0,0,0,8.27,3.29,12,12,0,0,0,12-12.32,11.85,11.85,0,0,0-3.72-8.39L301.09,179.27,420.5,72.18a12,12,0,0,0-16.1-17.86l-164,147.19-32.8-29.29a2.71,2.71,0,0,1-.45-.55,19.31,19.31,0,0,0-1.85-1.57l-.1-.08L75.8,54.22a12,12,0,1,0-16,18l120.82,108L60.33,292.79a12.11,12.11,0,0,0-.53,17A12.35,12.35,0,0,0,68.6,313.6Z"/></svg>