<svg id="Capa_1" data-name="Capa 1" xmlns="http://www.w3.org/2000/svg" viewBox="0 0 486.1 486"><defs><style>.cls-1{fill:#3da213;}</style></defs><title>icon</title><path class="cls-1" d="M414.8,71.2A243,243,0,1,0,71.2,414.8,241.38,241.38,0,0,0,243,486c37.7,0,72.1-7,99.4-20.1,25.9-12.5,44.7-30.4,53-50.3,9.9-23.9,4.3-48.8-15.3-68.4l-.7-.7a9.43,9.43,0,0,1,1-1c14-14.7,14-34-.2-48.2l-34.6-34.6c-6.8-7-15-10.8-23.7-10.8s-17,3.7-24,10.7l-18,18c-.9-.5-1.7-.9-2.6-1.3a62.89,62.89,0,0,1-5.9-3.2c-18.3-11.6-34.9-26.8-50.8-46.3a127.09,127.09,0,0,1-15.4-23.7c4.5-4.2,8.7-8.5,12.8-12.7,1.7-1.8,3.5-3.5,5.3-5.3,14.7-14.7,14.7-33.7,0-48.4l-17.1-17.1c-2-2-3.9-3.9-5.8-5.9-3.8-3.9-7.7-7.9-11.9-11.8-6.8-6.7-14.9-10.2-23.5-10.2s-16.8,3.5-23.8,10.2l-.2.2-21.5,21.5A49.11,49.11,0,0,0,104.9,158c-1.5,19,4,36.6,8.3,48.1,10.3,27.8,25.7,53.6,48.6,81.2a299,299,0,0,0,99.6,78c14.7,7,34.4,15.2,56.6,16.7,1.4.1,2.8.1,4.2.1,15.5,0,28.6-5.6,38.8-16.7l.4-.4a12,12,0,0,1,1.1-1.2l.6.6c12.8,12.8,16.3,27.4,10.1,42.3C361.7,434,317,462,243,462,122.2,462,24,363.8,24,243S122.2,24,243,24s219,98.2,219,219a220,220,0,0,1-7.9,58.4,12,12,0,0,0,23.2,6.4A242.72,242.72,0,0,0,414.8,71.2ZM343.2,349.1c-5.7,6.1-12.1,8.8-21,8.8a24.37,24.37,0,0,1-2.7-.1c-18-1.2-35-8.3-47.7-14.4a275,275,0,0,1-91.5-71.7c-21.1-25.4-35.2-48.9-44.6-74.1-5.6-15.2-7.7-26.8-6.9-37.8a25.06,25.06,0,0,1,7.7-16.4L158,122c1.7-1.6,4.3-3.5,7.1-3.5s5.2,1.8,6.7,3.4l.3.3c3.8,3.5,7.4,7.2,11.2,11.1,2,2,4,4.1,6,6.1l17.1,17.1c5.3,5.3,5.3,9.2,0,14.5l-5.4,5.4c-5.3,5.3-10.2,10.4-15.6,15.2-.2.1-.3.3-.5.5-7.5,7.5-4.9,15.3-4.1,17.9.1.3.2.5.3.8,4.6,11.1,11,21.5,20.8,33.9l.1.1c17.6,21.7,36.1,38.5,56.6,51.5,2.7,1.7,5.4,3.1,8,4.4a62.89,62.89,0,0,1,5.9,3.2,10.91,10.91,0,0,0,1.1.6,17.23,17.23,0,0,0,7.8,1.9,16.47,16.47,0,0,0,12-5.4l21.5-21.5c1.7-1.7,4.2-3.7,7-3.7,2.6,0,5,1.9,6.5,3.5l.2.2,34.6,34.6c4.9,4.9,4.9,9.4-.2,14.7l-.1.1c-2.3,2.5-4.8,4.9-7.5,7.5C351.4,340.3,347.2,344.4,343.2,349.1Z"/></svg>