<?xml version="1.0" encoding="utf-8"?>
<!-- Generator: Adobe Illustrator 22.0.0, SVG Export Plug-In . SVG Version: 6.00 Build 0)  -->
<svg version="1.1" id="Layer_1" xmlns="http://www.w3.org/2000/svg" xmlns:xlink="http://www.w3.org/1999/xlink" x="0px" y="0px"
	 viewBox="0 0 124.3 124.3" style="enable-background:new 0 0 124.3 124.3;" xml:space="preserve">
<style type="text/css">
	.st0{fill:#FFFFFF;}
	.st1{opacity:0.2;fill:#FFFFFF;}
</style>
<g>
	<path class="st0" d="M62.2,124.3C27.9,124.3,0,96.4,0,62.2C0,27.9,27.9,0,62.2,0s62.2,27.9,62.2,62.2
		C124.3,96.4,96.4,124.3,62.2,124.3z M62.2,5C30.6,5,5,30.6,5,62.2c0,31.5,25.6,57.2,57.2,57.2s57.2-25.6,57.2-57.2
		C119.3,30.6,93.7,5,62.2,5z"/>
	<g>
		<g>
			<path class="st0" d="M77.4,65.2c-1.6-1.5-3.5-1.5-5.1,0c-1.2,1.2-2.4,2.4-3.5,3.6c-0.3,0.3-0.6,0.4-1,0.2
				c-0.8-0.4-1.6-0.8-2.3-1.2c-3.4-2.2-6.3-5-8.9-8.1c-1.3-1.6-2.4-3.2-3.2-5.1c-0.2-0.4-0.1-0.6,0.2-0.9c1.2-1.1,2.3-2.3,3.5-3.5
				c1.6-1.6,1.6-3.6,0-5.2c-0.9-0.9-1.9-1.9-2.8-2.8c-1-1-1.9-1.9-2.9-2.9c-1.6-1.5-3.5-1.5-5.1,0c-1.2,1.2-2.3,2.4-3.6,3.5
				c-1.1,1.1-1.7,2.4-1.8,3.9c-0.2,2.5,0.4,4.8,1.3,7.1c1.8,4.7,4.4,8.9,7.7,12.8c4.4,5.2,9.6,9.3,15.8,12.3
				c2.8,1.3,5.6,2.4,8.7,2.5c2.1,0.1,4-0.4,5.5-2.1c1-1.1,2.2-2.2,3.2-3.3c1.6-1.6,1.6-3.6,0-5.2C81.2,69,79.3,67.1,77.4,65.2z"/>
		</g>
	</g>
</g>
</svg>
