<?xml version="1.0" encoding="utf-8"?>
<!-- Generator: Adobe Illustrator 22.0.0, SVG Export Plug-In . SVG Version: 6.00 Build 0)  -->
<svg version="1.1" id="Layer_1" xmlns="http://www.w3.org/2000/svg" xmlns:xlink="http://www.w3.org/1999/xlink" x="0px" y="0px"
	 viewBox="0 0 16 16" style="enable-background:new 0 0 16 16;" xml:space="preserve">
<style type="text/css">
	.st0{fill:#36B04A;}
</style>
<g>
	<path class="st0" d="M4.6,7c0.2,0,0.4,0,0.5,0c0.3,0,0.6,0.3,0.6,0.6c0,1.5,0,2.9,0,4.4c0.8,0,1.6,0,2.3,0c0,0,0,0,0,0c0,0,0,0,0,0
		c0.8,0,1.6,0,2.3,0c0-1.5,0-2.9,0-4.4C10.4,7.3,10.7,7,11,7c0.2,0,0.4,0,0.5,0c-1.2-1.2-2.3-2.4-3.5-3.6C6.9,4.6,5.7,5.8,4.6,7z"/>
	<path class="st0" d="M8,0C3.6,0,0,3.6,0,8s3.6,8,8,8s8-3.6,8-8S12.4,0,8,0z M13,8.2c-0.4,0-0.9,0-1.3,0c0,1.5,0,2.9,0,4.4
		c0,0.3-0.3,0.6-0.6,0.6c-1,0-2,0-2.9,0c0,0,0,0,0,0c0,0,0,0,0,0c-1,0-2,0-2.9,0c-0.3,0-0.6-0.3-0.6-0.6c0-1.5,0-2.9,0-4.4
		c-0.4,0-0.9,0-1.3,0c-0.5,0-0.8-0.7-0.4-1C4.3,5.5,6,3.7,7.6,2c0.1-0.1,0.3-0.2,0.4-0.2c0.2,0,0.3,0.1,0.4,0.2
		c1.6,1.7,3.3,3.4,4.9,5.1C13.8,7.5,13.5,8.2,13,8.2z"/>
</g>
</svg>
