<?xml version="1.0" encoding="utf-8"?>
<!-- Generator: Adobe Illustrator 22.0.0, SVG Export Plug-In . SVG Version: 6.00 Build 0)  -->
<svg version="1.1" id="Layer_1" xmlns="http://www.w3.org/2000/svg" xmlns:xlink="http://www.w3.org/1999/xlink" x="0px" y="0px"
	 viewBox="0 0 16 16" style="enable-background:new 0 0 16 16;" xml:space="preserve">
<style type="text/css">
	.st0{fill:#36B04A;}
	.st1{fill:#FFFFFF;}
</style>
<circle class="st0" cx="8" cy="8" r="8"/>
<path class="st1" d="M13.4,7.2C11.8,5.5,10.1,3.7,8.5,2C8.4,1.9,8.2,1.8,8.1,1.9C7.9,1.8,7.7,1.9,7.6,2C6,3.7,4.3,5.5,2.7,7.2
	c-0.4,0.4-0.1,1,0.4,1c0.4,0,0.9,0,1.3,0c0,1.5,0,2.9,0,4.4c0,0.3,0.3,0.6,0.6,0.6c1,0,2,0,2.9,0c0,0,0,0,0,0c0,0,0,0,0,0
	c1,0,2,0,2.9,0c0.3,0,0.6-0.3,0.6-0.6c0-1.5,0-2.9,0-4.4c0.4,0,0.9,0,1.3,0C13.5,8.2,13.8,7.5,13.4,7.2z M11,7
	c-0.3,0-0.6,0.3-0.6,0.6c0,1.5,0,2.9,0,4.4c-0.8,0-1.6,0-2.3,0c0,0,0,0,0,0c0,0,0,0,0,0c-0.8,0-1.6,0-2.3,0c0-1.5,0-2.9,0-4.4
	C5.7,7.3,5.4,7,5.1,7C4.9,7,4.7,7,4.6,7c1.2-1.2,2.3-2.4,3.5-3.6c1.2,1.2,2.3,2.4,3.5,3.6C11.4,7,11.2,7,11,7z"/>
</svg>
