<?xml version="1.0" standalone="no"?>
<!DOCTYPE svg PUBLIC "-//W3C//DTD SVG 20010904//EN"
 "http://www.w3.org/TR/2001/REC-SVG-20010904/DTD/svg10.dtd">
<svg version="1.0" xmlns="http://www.w3.org/2000/svg"
 width="1150.000000pt" height="1150.000000pt" viewBox="0 0 1150.000000 1150.000000"
 preserveAspectRatio="xMidYMid meet">
<metadata>
Created by potrace 1.11, written by Peter Selinger 2001-2013
</metadata>
<g transform="translate(0.000000,1150.000000) scale(0.100000,-0.100000)"
fill="#000000" stroke="none">
<path d="M5577 11494 c-1 -1 -63 -5 -137 -8 -74 -4 -146 -9 -160 -10 -14 -2
-61 -7 -106 -10 -44 -4 -92 -8 -105 -10 -13 -3 -46 -7 -74 -11 -95 -12 -120
-16 -205 -31 -116 -19 -126 -21 -253 -49 -134 -29 -272 -63 -307 -74 -14 -5
-45 -14 -70 -21 -111 -30 -410 -129 -455 -150 -11 -5 -55 -23 -99 -40 -219
-86 -556 -251 -755 -372 -34 -21 -65 -38 -67 -38 -12 0 -454 -298 -474 -320
-3 -3 -32 -25 -65 -50 -69 -51 -67 -49 -210 -171 -260 -223 -486 -451 -705
-715 -223 -267 -383 -500 -606 -884 -84 -145 -249 -500 -324 -695 -23 -60 -45
-119 -50 -130 -10 -21 -79 -230 -85 -255 -2 -8 -17 -60 -33 -115 -29 -96 -86
-322 -96 -375 -2 -14 -13 -72 -24 -130 -27 -141 -34 -184 -46 -280 -4 -30 -9
-66 -11 -80 -2 -14 -7 -47 -10 -75 -3 -27 -7 -68 -9 -90 -28 -250 -28 -898 -1
-1101 2 -17 7 -57 10 -90 3 -32 8 -72 10 -89 2 -16 7 -52 11 -80 3 -27 8 -59
10 -70 3 -11 7 -40 10 -65 3 -25 9 -61 14 -80 5 -19 11 -52 14 -73 17 -108 91
-409 143 -577 15 -47 27 -89 29 -95 4 -17 85 -249 94 -270 5 -11 26 -65 48
-120 189 -470 469 -957 791 -1370 47 -60 88 -112 91 -115 3 -3 30 -34 60 -70
133 -159 402 -437 539 -556 24 -22 54 -48 65 -59 38 -37 280 -231 376 -302
165 -121 428 -292 573 -371 31 -18 81 -45 110 -61 148 -82 556 -272 612 -285
6 -2 21 -8 35 -13 268 -110 754 -246 1065 -297 17 -3 44 -7 60 -10 219 -37
437 -61 650 -72 86 -4 565 -4 620 1 22 2 76 6 120 9 44 3 100 8 125 11 89 9
155 16 180 20 39 6 106 15 137 19 38 5 144 24 228 41 39 8 85 17 104 20 19 3
38 8 41 10 4 3 25 7 46 11 58 9 377 99 494 139 58 19 112 37 120 40 47 13 315
119 430 171 305 137 763 398 970 554 19 14 80 60 135 101 393 292 854 751
1127 1121 9 13 47 63 83 112 36 50 75 106 87 125 12 20 25 38 28 41 12 10 158
246 224 362 62 110 178 336 224 439 41 90 104 234 106 244 2 6 7 19 11 30 78
192 204 588 240 752 2 10 17 79 34 153 16 74 32 149 34 165 3 17 10 62 16 100
7 39 14 81 16 95 3 14 8 49 11 79 3 30 7 62 9 71 2 10 6 53 10 96 4 43 9 87
11 97 23 128 23 816 -1 1017 -2 19 -6 64 -10 100 -3 36 -7 75 -9 85 -2 11 -7
46 -11 79 -3 32 -8 68 -10 80 -2 11 -6 39 -9 61 -21 145 -79 411 -133 610 -36
135 -160 513 -173 530 -4 6 -11 21 -15 35 -4 14 -25 68 -47 120 -296 709 -737
1358 -1286 1893 -139 136 -155 151 -237 222 -39 33 -72 63 -75 66 -3 3 -50 41
-105 85 -55 43 -105 84 -111 89 -6 6 -22 17 -34 25 -23 15 -86 62 -106 79 -35
29 -301 202 -424 275 -248 148 -638 336 -905 436 -322 120 -766 240 -1050 284
-16 2 -59 9 -95 15 -85 13 -134 20 -195 26 -53 5 -135 14 -199 21 -98 11 -649
26 -659 18z m328 -1350 c82 -24 131 -57 220 -149 87 -89 349 -362 455 -475 43
-46 285 -299 445 -466 22 -23 78 -82 125 -131 47 -49 160 -168 251 -264 92
-95 191 -199 220 -230 30 -31 129 -135 220 -230 91 -96 181 -190 200 -210 19
-20 107 -112 196 -205 88 -93 183 -192 210 -220 26 -28 122 -129 213 -224 91
-95 185 -194 210 -220 106 -111 360 -378 419 -439 251 -262 340 -359 367 -399
131 -195 74 -479 -121 -609 -109 -71 -109 -71 -684 -72 -283 -1 -517 -3 -519
-5 -2 -3 -4 -722 -4 -1598 0 -1729 2 -1649 -55 -1747 -55 -95 -140 -166 -241
-204 l-57 -21 -2185 -2 c-1643 -1 -2197 2 -2235 11 -166 39 -303 183 -332 350
-5 28 -9 762 -8 1633 l0 1582 -501 0 c-276 0 -524 4 -551 9 -296 57 -446 423
-276 674 21 30 112 133 203 227 91 95 185 194 210 220 25 26 124 130 220 230
96 101 195 204 220 230 25 26 122 128 216 226 94 99 183 192 198 208 15 17
105 111 200 210 95 100 188 197 207 217 19 20 108 114 199 209 197 206 209
218 420 440 142 150 232 244 400 420 19 20 112 117 207 216 94 98 191 199 214
224 100 107 389 408 440 461 67 67 124 103 199 123 66 18 206 18 265 0z"/>
<path d="M5712 9038 c-33 -35 -82 -85 -108 -113 -26 -27 -120 -126 -210 -220
-89 -93 -186 -195 -214 -225 -45 -47 -155 -162 -429 -449 -61 -65 -320 -336
-401 -421 -74 -78 -364 -381 -420 -439 -59 -62 -351 -369 -414 -435 -27 -28
-91 -95 -143 -149 -52 -54 -92 -101 -89 -104 3 -3 97 -6 208 -6 284 0 345 -17
472 -135 44 -40 84 -109 106 -181 20 -62 20 -101 20 -1665 l0 -1601 1675 1
c921 0 1678 3 1681 7 3 3 6 718 6 1589 0 871 4 1604 8 1629 21 108 99 223 195
284 97 62 126 68 378 71 126 1 230 4 232 6 2 1 -52 60 -118 129 -67 70 -169
176 -226 235 -150 158 -415 436 -494 518 -67 70 -290 304 -377 396 -51 54
-340 356 -415 435 -27 28 -109 114 -182 191 -72 76 -167 176 -210 220 -174
181 -410 428 -439 461 l-31 34 -61 -63z"/>
</g>
</svg>
